# xmcd
#
# Track frame offsets: 
#        150
#        13208
#        30986
#        47044
#        56858
#        70312
#        82204
#        93954
#        106331
#        119901
#        134013
#        149235
#        161487
#        176176
#        188237
#        201736
#        219059
#        234424
#        249893
#        262166
#
# Disc length: 3668 seconds
#
# Revision: 0
# Processed by: cddbd v1.5.2PL0 Copyright (c) Steve Scherf et al.
# Submitted via: ExactAudioCopy v1.1
#
DISCID=3b0e5214
DTITLE=Paul Severs - Een Avond Met Paul Severs
DYEAR=2017
DGENRE=Chanson
TTITLE0=Zeg Eens Meisje
TTITLE1=Ik Ben Verliefd Op Jou
TTITLE2=Hé Suzie
TTITLE3=Geen Wonder Dat Ik Ween
TTITLE4=Dennie Damaro and Paul Severs - Marieke
TTITLE5=Paul Severs (Duet Met Liesje) - Als Je Groot Zal Zijn, Mijn Ki
TTITLE5=nd
TTITLE6=Schatje, Mag Ik Je Foto
TTITLE7=Jouw Ogen (Ode Aan Paulette)
TTITLE8=Klop Driemaal Op M'n Deur
TTITLE9=Little Darling
TTITLE10=Ave Maria Ik Bid Tot Jou
TTITLE11=Niet Te Doen
TTITLE12=Vanavond Zet Ik De Bloemetjes Buiten
TTITLE13=Waarom Ach Waarom
TTITLE14=Zomer
TTITLE15=Zeg Is Dat Niet Wondermooi
TTITLE16=De Kusjesdans
TTITLE17=Paul Severs and Dina Rodrigues - Ik Heb 'n Oogje Op Jou
TTITLE18=Ze Komt Terug
TTITLE19=Dank U Wel
EXTD=
EXTT0=
EXTT1=
EXTT2=
EXTT3=
EXTT4=
EXTT5=
EXTT6=
EXTT7=
EXTT8=
EXTT9=
EXTT10=
EXTT11=
EXTT12=
EXTT13=
EXTT14=
EXTT15=
EXTT16=
EXTT17=
EXTT18=
EXTT19=
PLAYORDER=
